<svg width="75" height="75" viewBox="0 0 75 75" fill="none" xmlns="http://www.w3.org/2000/svg">
<path d="M64.0224 44.7672C69.3489 46.2266 72.5887 51.8366 69.7771 56.5902C67.8936 59.7749 65.5398 62.679 62.7798 65.1981C57.5418 69.9788 51.0555 73.1762 44.0736 74.4193C37.0918 75.6625 29.9005 74.9004 23.3343 72.2215C16.768 69.5426 11.096 65.0567 6.97634 59.2843C2.85667 53.5119 0.45825 46.6897 0.0593663 39.6093C-0.339518 32.5288 1.27749 25.4804 4.72276 19.2818C8.16803 13.0833 13.3003 7.98868 19.5241 4.58924C22.8035 2.79803 26.3151 1.51614 29.9391 0.770137C35.3485 -0.34341 39.6006 4.54403 39.2493 10.0557L38.0181 29.3717C37.7164 34.1049 40.781 38.399 45.3552 39.6523L64.0224 44.7672Z" fill="#D9D9D9"/>
</svg>
